<svg width="613" height="95" viewBox="0 0 613 95" fill="none" xmlns="http://www.w3.org/2000/svg">
<path fill-rule="evenodd" clip-rule="evenodd" d="M34.926 35.846L44.8836 13.8789L55.9044 32.5308L86.1264 30.8751L62.6605 47.8713L70.8369 67.7668L46.6609 59.0608L21.4138 75.6411L27.1027 52.4302L5.06104 40.4089L34.926 35.846Z" fill="#FFED00"/>
<path fill-rule="evenodd" clip-rule="evenodd" d="M4.06257 9.47691H86.968C88.7806 9.50045 89.9694 10.0615 90.0871 12.0977L90.0949 12.7373C90.0949 34.1512 90.0949 55.5651 90.091 76.9751C90.091 79.4586 88.6747 79.8941 86.4736 79.8941C58.9313 79.8941 31.3851 79.902 3.84286 79.9059C3.27789 79.9059 2.55598 79.7372 2.11264 79.3919C1.99886 79.3056 1.89293 79.2232 1.81053 79.1369C1.38681 78.6896 1.20633 78.313 1.12394 77.6735C1.09647 77.4655 1.1004 77.2262 1.1004 76.9555V12.6902C1.13179 10.6265 1.75561 9.47691 4.06649 9.47691M0.288254 12.9727C0.288254 12.7804 0.300024 12.5842 0.288254 12.392C0.209786 11.2464 0.558968 10.3401 1.19456 9.68877C1.91647 8.95117 2.89732 8.5863 4.05472 8.67261C4.37252 8.66869 4.69423 8.66476 5.01203 8.66084H86.2735C86.5286 8.66084 86.7836 8.66476 87.0386 8.66869C87.0778 8.66869 87.1171 8.66869 87.1563 8.66869C87.5722 8.65299 87.9684 8.68438 88.3451 8.75892C88.9768 8.88447 89.632 9.29643 90.04 9.74762C90.4166 10.1674 90.707 10.6775 90.8247 11.3327C90.8718 11.6112 90.8796 11.8859 90.8953 12.1644V77.3125C90.8875 77.4381 90.8796 77.5597 90.8718 77.6853C90.7972 78.98 89.9498 79.9569 88.8787 80.4434C88.4628 80.6317 88.0155 80.7023 87.5761 80.6984C87.5172 80.6984 87.4584 80.7023 87.3995 80.7023C87.2505 80.7023 87.1014 80.7023 86.9523 80.7023H4.07041C3.82716 80.6984 3.63099 80.7023 3.4309 80.6945C2.26565 80.6396 1.47312 80.0903 0.919921 79.337C0.515811 78.7877 0.292177 78.1129 0.296101 77.3361C0.296101 77.289 0.292177 77.2419 0.288254 77.1909C0.280407 76.9633 0.28433 76.7358 0.28433 76.5043C0.28433 55.3297 0.28433 34.1512 0.28433 12.9766L0.288254 12.9727Z" fill="white"/>
<mask id="mask0_2056_59" style="mask-type:luminance" maskUnits="userSpaceOnUse" x="6" y="15" width="78" height="60">
<path d="M35.349 36.3684L44.9574 15.1938L55.5271 33.2062L83.9521 31.6486L61.6751 47.7816L69.616 66.5786L46.4876 58.4023L22.5234 74.143L27.922 52.1091L6.99854 40.696L35.349 36.3684Z" fill="white"/>
</mask>
<g mask="url(#mask0_2056_59)">
<path d="M83.9521 15.1938H6.99854V74.143H83.9521V15.1938Z" fill="url(#paint0_linear_2056_59)"/>
</g>
<mask id="mask1_2056_59" style="mask-type:luminance" maskUnits="userSpaceOnUse" x="35" y="34" width="25" height="24">
<path d="M38.4672 49.9109C38.016 49.5421 37.6119 49.1262 37.2588 48.6633C36.5291 47.7099 36.0504 46.6505 35.8229 45.4971C35.5953 44.3711 35.6188 43.2333 35.866 42.0955C36.1877 40.5732 36.8782 39.2275 37.9297 38.0426C38.9537 36.8852 40.1974 36.0103 41.6609 35.3943C43.1086 34.7862 44.6505 34.4919 46.3023 34.5155C47.7029 34.5469 48.9976 34.8921 50.1943 35.5473C50.3316 35.614 50.4689 35.6846 50.6023 35.7631C50.6101 35.767 50.6141 35.771 50.6219 35.7788C50.2845 36.3516 49.8098 37.1559 49.4645 37.7484C48.5347 37.0853 47.5224 36.5517 46.2002 36.5203C45.1605 36.4889 44.1287 36.689 43.1047 37.1206C42.065 37.5522 41.1626 38.2035 40.3897 39.0745C39.605 39.9612 39.0793 41.0558 38.8164 42.3701C38.5653 43.6099 38.6163 44.7673 38.993 45.8306C39.7109 47.8668 41.0057 48.2984 42.9281 48.8516C42.4848 49.597 41.8021 50.7584 41.347 51.5273C41.0096 51.4214 40.6879 51.2959 40.3818 51.1585C39.6678 50.8251 39.0322 50.4131 38.4751 49.9148M41.755 57.7812L41.1312 57.7891H41.1155C40.2053 57.8009 39.2087 57.8126 38.4123 57.8205C38.5339 57.6125 38.6555 57.4046 38.7772 57.2006C40.8134 53.7127 42.63 50.5936 44.4386 47.4941C46.2356 44.4142 47.9265 41.5109 49.5194 38.7763L49.5861 38.9018C50.9829 41.5776 52.6935 44.6143 54.255 47.6236C55.9499 50.88 57.5114 53.8892 59.4535 57.6086H59.3162H59.2966H59.2652H59.2456H59.2142H59.1945H59.0572H59.0376H59.0062H58.9866H58.9552H58.9356H58.8493H58.8297H58.7983H58.7787H58.7473H58.7277H58.5903H58.5707H58.5393H58.5197H58.4883H58.4687H58.2804H58.2608H58.2294H58.2098H58.1784H58.1588H58.0215H58.0018H57.9705H57.9508H57.9194H57.8998H57.7625H57.7429H57.7115H57.6919H57.6605H57.6409H57.4526H57.4329H57.4016H57.3819H57.3506H57.3309H57.1936H57.174H57.1426H57.123H57.0916H57.072H56.8837H56.8641H56.8327H56.813H56.7817H56.762H56.5737H56.5541H56.5227H56.5031H56.4717H56.4521H56.2638H56.2442H56.2128H56.1932H56.1618H56.1421L55.8126 57.5694C54.8749 55.6783 54.0235 53.9167 53.1604 52.1669C50.6533 52.1865 48.4915 52.1982 45.9845 52.2139C46.0865 52.0138 46.0943 51.9825 46.2002 51.7824V51.7745H46.2081C46.5887 51.0487 46.9732 50.3582 47.3459 49.6441C48.9505 49.6323 50.5591 49.6166 52.1677 49.6049C51.5988 48.4239 51.0378 47.2744 50.4964 46.1405L49.5391 44.3318C49.1271 45.0341 48.7073 45.7482 48.2836 46.4701C47.7382 47.4666 47.185 48.4867 46.62 49.5186C46.6122 49.5303 46.6044 49.546 46.5965 49.5578C46.5416 49.6598 46.4867 49.7618 46.4317 49.8638C45.8981 50.8486 45.3567 51.8451 44.8074 52.8613C43.8697 54.5758 43.14 55.9372 42.1435 57.7616H41.7707L41.755 57.7812Z" fill="white"/>
</mask>
<g mask="url(#mask1_2056_59)">
<path d="M59.4436 34.4897H35.5894V57.8144H59.4436V34.4897Z" fill="url(#paint1_linear_2056_59)"/>
</g>
<path d="M44.6026 52.2821C43.712 53.926 42.7939 55.621 41.8483 57.3708C40.7969 57.3865 39.6866 57.3865 38.6351 57.4022C40.7027 53.824 42.6919 50.4852 44.5084 47.3465C46.2151 44.3961 47.7766 41.689 49.291 39.0681C50.625 41.6419 52.0884 44.298 53.595 47.2053C55.2036 50.3008 56.9221 53.6083 58.7661 57.1432C57.7067 57.1589 56.6513 57.1707 55.5999 57.1864C54.67 55.3032 53.7716 53.4788 52.9084 51.7211C51.7589 51.7368 50.6054 51.7564 49.4558 51.7721C48.3063 51.7878 47.3019 51.8035 46.1562 51.8231C46.5721 51.0031 46.9841 50.1949 47.3921 49.3984C48.9183 49.3749 50.2994 49.3514 51.8295 49.3278C51.2881 48.2057 50.7584 47.1111 50.2405 46.0361C49.8756 45.3456 49.5186 44.6707 49.1655 43.9998C48.7535 44.7139 48.3298 45.4358 47.9061 46.1656C47.3882 47.1229 46.8625 48.0959 46.3249 49.0846C46.3171 49.0963 46.3093 49.1081 46.3053 49.1199C46.2543 49.218 46.1994 49.3161 46.1523 49.4102C45.6462 50.3518 45.1322 51.3052 44.6065 52.2821M41.3383 51.0188C41.0166 50.9207 40.7145 50.803 40.4202 50.6735C39.3099 50.1635 38.4036 49.4416 37.6935 48.5157C36.999 47.6094 36.5478 46.605 36.3281 45.5025C36.1123 44.4275 36.132 43.3446 36.3713 42.2539C36.6734 40.7983 37.3325 39.5075 38.3291 38.3737C39.3021 37.2634 40.483 36.4159 41.8719 35.8235C43.2451 35.235 44.7085 34.9446 46.2779 34.9564C47.6511 34.9799 48.9144 35.3174 50.0836 35.9765C50.0914 35.9804 50.0953 35.9843 50.1032 35.9883C49.7815 36.5375 49.5382 36.9573 49.2087 37.5223C47.5569 36.3492 44.8144 36.4826 43.0058 37.2594C42.0171 37.6792 41.1618 38.307 40.4281 39.1427C39.6826 39.994 39.1804 41.0416 38.9333 42.2971C38.6939 43.482 38.7449 44.5844 39.102 45.6006C39.4668 46.6364 40.0946 47.4681 40.9891 48.0841C41.4795 48.4215 42.072 48.5628 42.6683 48.7315C42.2485 49.4455 41.7699 50.2812 41.3383 51.0188Z" fill="#282586"/>
<path d="M88.8454 88.9138C89.124 88.8981 89.3594 88.8471 89.5438 88.7686C89.7282 88.6902 89.8812 88.5764 89.995 88.4351C90.1088 88.2939 90.1912 88.1213 90.2382 87.9212C90.2853 87.7211 90.3128 87.4935 90.3128 87.2424C90.3128 86.9913 90.2892 86.7638 90.2382 86.5637C90.1912 86.3636 90.1088 86.1949 89.9989 86.0536C89.8891 85.9124 89.736 85.8025 89.5477 85.7202C89.3594 85.6378 89.124 85.5907 88.8454 85.5789V88.9138ZM88.0058 89.6436C87.6449 89.6279 87.3192 89.569 87.0328 89.4748C86.7425 89.3807 86.4953 89.2394 86.2913 89.0472C86.0873 88.8549 85.9264 88.6117 85.8205 88.3174C85.7106 88.0232 85.6557 87.6622 85.6557 87.2424C85.6557 86.8226 85.7106 86.4695 85.8205 86.1713C85.9303 85.8732 86.0873 85.6299 86.2913 85.4416C86.4953 85.2533 86.7464 85.112 87.0328 85.0179C87.3231 84.9237 87.6449 84.8688 88.0058 84.8492V84.1704H88.6414C88.7787 84.1704 88.8454 84.2371 88.8454 84.3666V84.8452C89.2064 84.8609 89.532 84.9198 89.8184 85.0139C90.1088 85.1081 90.3559 85.2493 90.56 85.4416C90.764 85.6338 90.9248 85.8771 91.0308 86.1713C91.1406 86.4656 91.1955 86.8226 91.1955 87.2385C91.1955 87.6544 91.1406 88.0193 91.0308 88.3135C90.9209 88.6078 90.764 88.851 90.56 89.0433C90.3559 89.2355 90.1088 89.3768 89.8184 89.4709C89.5281 89.5651 89.2064 89.62 88.8454 89.6396V90.4125H88.2098C88.0725 90.4125 88.0058 90.3458 88.0058 90.2164V89.6436ZM88.0058 85.5789C87.7194 85.5907 87.484 85.6378 87.2957 85.7162C87.1074 85.7947 86.9583 85.9085 86.8445 86.0497C86.7346 86.191 86.6562 86.3636 86.6091 86.5637C86.562 86.7638 86.5424 86.9913 86.5424 87.2424C86.5424 87.4935 86.5659 87.7211 86.6091 87.9212C86.6562 88.1213 86.7346 88.2939 86.8445 88.4351C86.9543 88.5764 87.1074 88.6902 87.2957 88.7686C87.484 88.8471 87.7233 88.8981 88.0058 88.9138V85.5789ZM80.8966 87.4504C81.0457 87.4778 81.1948 87.5014 81.3439 87.5249C81.493 87.5445 81.6421 87.5563 81.7912 87.5563C81.9756 87.5563 82.1325 87.5367 82.2698 87.5014C82.4071 87.4661 82.5209 87.3994 82.6072 87.3052C82.6975 87.211 82.7642 87.0855 82.8073 86.9246C82.8544 86.7638 82.874 86.5598 82.874 86.3165C82.874 86.0536 82.8505 85.8418 82.7995 85.6809C82.7524 85.5201 82.6778 85.3984 82.5798 85.3082C82.4817 85.218 82.364 85.1591 82.2227 85.1277C82.0815 85.0963 81.9245 85.0806 81.748 85.0806C81.5714 85.0806 81.4145 85.0846 81.2615 85.0963C81.1085 85.1081 80.9869 85.1238 80.8888 85.1395V87.4543L80.8966 87.4504ZM80.21 90.3733C80.0727 90.3733 80.006 90.3066 80.006 90.1771V84.5353C80.2571 84.4882 80.5396 84.4529 80.8535 84.4176C81.1673 84.3862 81.4616 84.3705 81.7362 84.3705C82.4267 84.3705 82.9368 84.5196 83.2624 84.8178C83.5881 85.1159 83.7529 85.6142 83.7529 86.3087C83.7529 86.6618 83.7097 86.9639 83.6195 87.211C83.5292 87.4582 83.4076 87.6583 83.2467 87.8113C83.0859 87.9643 82.8897 88.0781 82.6582 88.1487C82.4267 88.2194 82.1717 88.2547 81.8892 88.2547C81.7401 88.2547 81.5832 88.2429 81.4184 88.2233C81.2536 88.2037 81.0771 88.1723 80.8966 88.133V90.3733H80.21ZM77.7932 89.875C77.7932 90.0751 77.7461 90.2164 77.6559 90.2988C77.5656 90.3812 77.4205 90.4243 77.2204 90.4243C77.0203 90.4243 76.8673 90.3812 76.777 90.2988C76.6868 90.2164 76.6436 90.0751 76.6436 89.875C76.6436 89.6749 76.6907 89.5415 76.781 89.4592C76.8712 89.3768 77.0164 89.3336 77.2165 89.3336C77.4166 89.3336 77.5617 89.3768 77.652 89.4592C77.7422 89.5415 77.7893 89.6789 77.7893 89.875H77.7932ZM74.4308 90.3733H73.7364C73.5991 90.3733 73.5324 90.3066 73.5324 90.1771V85.167H71.8179C71.8139 85.371 71.8061 85.5907 71.8022 85.8222C71.7982 86.0536 71.7865 86.2851 71.7747 86.5166C71.7629 86.7481 71.7512 86.9796 71.7394 87.2071C71.7276 87.4347 71.7119 87.6505 71.6962 87.8506C71.6295 88.7372 71.4883 89.3885 71.2804 89.8005C71.0724 90.2164 70.7664 90.4204 70.3662 90.4204C70.2132 90.4204 70.0876 90.3968 69.9896 90.3537C69.9386 90.3262 69.8993 90.2948 69.8797 90.2595C69.8562 90.2242 69.8444 90.1693 69.8444 90.0869V89.6906C69.8915 89.6946 69.9307 89.6985 69.9699 89.6985H70.0955C70.1857 89.6985 70.272 89.6789 70.3544 89.6357C70.4329 89.5925 70.5074 89.4984 70.5741 89.3532C70.6408 89.2081 70.6997 88.9923 70.7507 88.7059C70.8017 88.4195 70.8409 88.031 70.8723 87.5406C70.888 87.3052 70.9037 87.0541 70.9116 86.7912C70.9194 86.5244 70.9273 86.2577 70.939 85.9869C70.9469 85.7162 70.9547 85.4455 70.9586 85.1826C70.9626 84.9159 70.9704 84.6648 70.9743 84.4333H74.2347C74.372 84.4333 74.4387 84.5 74.4387 84.6294V90.3772L74.4308 90.3733ZM68.1102 87.4072C68.1102 88.0428 68.0592 88.5607 67.9572 88.9609C67.8552 89.3611 67.7101 89.671 67.5217 89.8947C67.3334 90.1183 67.1059 90.2713 66.8391 90.3537C66.5723 90.4361 66.2819 90.4792 65.9602 90.4792C65.6385 90.4792 65.3482 90.4361 65.0853 90.3537C64.8224 90.2713 64.5949 90.1183 64.4066 89.8947C64.2182 89.671 64.0731 89.3611 63.9711 88.9609C63.8691 88.5607 63.818 88.0428 63.818 87.4072C63.818 86.7716 63.8691 86.2537 63.9711 85.8535C64.0731 85.4534 64.2182 85.1434 64.4066 84.9198C64.5949 84.6961 64.8224 84.5431 65.0853 84.4607C65.3482 84.3783 65.6385 84.3352 65.9602 84.3352C66.2819 84.3352 66.5723 84.3783 66.8391 84.4607C67.1059 84.5431 67.3334 84.6961 67.5217 84.9198C67.7101 85.1434 67.8552 85.4534 67.9572 85.8535C68.0592 86.2537 68.1102 86.7716 68.1102 87.4072ZM64.7322 87.4072C64.7322 87.8466 64.7518 88.2154 64.7871 88.5097C64.8224 88.8039 64.8891 89.0433 64.9833 89.2198C65.0775 89.4003 65.203 89.5298 65.3599 89.6043C65.5169 89.6828 65.717 89.722 65.9563 89.722C66.1956 89.722 66.3957 89.6828 66.5527 89.6043C66.7096 89.5258 66.8351 89.4003 66.9293 89.2198C67.0235 89.0393 67.0902 88.8039 67.1294 88.5097C67.1686 88.2154 67.1883 87.8466 67.1883 87.4072C67.1883 86.9678 67.1686 86.599 67.1294 86.3047C67.0902 86.0105 67.0235 85.7712 66.9293 85.5946C66.8351 85.4141 66.7096 85.2847 66.5527 85.2101C66.3957 85.1316 66.1956 85.0924 65.9563 85.0924C65.717 85.0924 65.5169 85.1316 65.3599 85.2101C65.203 85.2886 65.0775 85.4141 64.9833 85.5946C64.8891 85.7751 64.8224 86.0105 64.7871 86.3047C64.7518 86.599 64.7322 86.9678 64.7322 87.4072ZM61.8407 84.7825C61.6249 85.1434 61.3306 85.5475 60.9618 85.9909C60.593 86.4381 60.1654 86.8697 59.6789 87.2934C59.8829 87.4661 60.0987 87.6662 60.3223 87.9016C60.5459 88.137 60.7617 88.3881 60.9736 88.6549C61.1854 88.9216 61.3895 89.2041 61.5856 89.4945C61.7818 89.7848 61.9584 90.0791 62.1114 90.3694H61.2718C61.1815 90.3694 61.1148 90.3458 61.0717 90.2948C61.0285 90.2478 60.9932 90.1928 60.9657 90.1379C60.6558 89.6632 60.3262 89.212 59.9692 88.7804C59.6161 88.3488 59.2826 87.9879 58.9726 87.6936V90.3694H58.2782C58.1409 90.3694 58.0742 90.3027 58.0742 90.1732V84.4254H58.7686C58.9059 84.4254 58.9726 84.4921 58.9726 84.6216V86.9796C59.1492 86.8148 59.3297 86.6343 59.518 86.4381C59.7024 86.242 59.8868 86.0379 60.0673 85.8182C60.2478 85.5985 60.4204 85.371 60.5891 85.1356C60.7578 84.9002 60.9147 84.6648 61.0638 84.4254H61.7151C61.8367 84.4254 61.8956 84.4804 61.8956 84.5902C61.8956 84.6373 61.876 84.7001 61.8367 84.7785L61.8407 84.7825ZM49.3799 84.4294H50.0665C50.2038 84.4294 50.2705 84.496 50.2705 84.6255V89.6004H52.1224V84.4294H52.809C52.9463 84.4294 53.013 84.496 53.013 84.6255V89.6004H54.8648V84.4294H55.5514C55.6888 84.4294 55.7555 84.496 55.7555 84.6255V90.3733H49.58C49.4427 90.3733 49.376 90.3066 49.376 90.1771V84.4294H49.3799ZM47.1828 87.4072C47.1828 88.0428 47.1318 88.5607 47.0298 88.9609C46.9278 89.3611 46.7826 89.671 46.5943 89.8947C46.406 90.1183 46.1784 90.2713 45.9116 90.3537C45.6449 90.4361 45.3545 90.4792 45.0328 90.4792C44.7111 90.4792 44.4208 90.4361 44.1579 90.3537C43.895 90.2713 43.6675 90.1183 43.4791 89.8947C43.2908 89.671 43.1456 89.3611 43.0436 88.9609C42.9416 88.5607 42.8906 88.0428 42.8906 87.4072C42.8906 86.7716 42.9416 86.2537 43.0436 85.8535C43.1456 85.4534 43.2908 85.1434 43.4791 84.9198C43.6675 84.6961 43.895 84.5431 44.1579 84.4607C44.4208 84.3783 44.7111 84.3352 45.0328 84.3352C45.3545 84.3352 45.6449 84.3783 45.9116 84.4607C46.1784 84.5431 46.406 84.6961 46.5943 84.9198C46.7826 85.1434 46.9278 85.4534 47.0298 85.8535C47.1318 86.2537 47.1828 86.7716 47.1828 87.4072ZM43.8048 87.4072C43.8048 87.8466 43.8244 88.2154 43.8597 88.5097C43.895 88.8039 43.9617 89.0433 44.0559 89.2198C44.15 89.4003 44.2756 89.5298 44.4325 89.6043C44.5895 89.6828 44.7896 89.722 45.0289 89.722C45.2682 89.722 45.4683 89.6828 45.6252 89.6043C45.7822 89.5258 45.9077 89.4003 46.0019 89.2198C46.096 89.0393 46.1627 88.8039 46.202 88.5097C46.2412 88.2154 46.2608 87.8466 46.2608 87.4072C46.2608 86.9678 46.2412 86.599 46.202 86.3047C46.1627 86.0105 46.096 85.7712 46.0019 85.5946C45.9077 85.4141 45.7822 85.2847 45.6252 85.2101C45.4683 85.1316 45.2682 85.0924 45.0289 85.0924C44.7896 85.0924 44.5895 85.1316 44.4325 85.2101C44.2756 85.2886 44.15 85.4141 44.0559 85.5946C43.9617 85.7751 43.895 86.0105 43.8597 86.3047C43.8244 86.599 43.8048 86.9678 43.8048 87.4072ZM38.5906 85.1866H37.2252C37.0879 85.1866 37.0212 85.1199 37.0212 84.9904V84.4333H40.8622C40.925 84.4333 40.976 84.449 41.0113 84.4843C41.0466 84.5196 41.0662 84.5667 41.0662 84.6294V85.1866H39.489V90.3772H38.7946C38.6573 90.3772 38.5906 90.3105 38.5906 90.1811V85.1905V85.1866ZM31.4971 84.5353C31.7482 84.4882 32.0346 84.4529 32.3563 84.4176C32.678 84.3862 32.9644 84.3705 33.2234 84.3705C33.5098 84.3705 33.7726 84.398 34.008 84.4529C34.2434 84.5078 34.4475 84.5941 34.6162 84.7197C34.7849 84.8413 34.9183 85.0061 35.0124 85.214C35.1066 85.418 35.1537 85.6731 35.1537 85.9673C35.1537 86.3047 35.0909 86.5833 34.9693 86.8069C34.8477 87.0306 34.6515 87.1993 34.3886 87.3131C34.73 87.4386 34.9693 87.6269 35.1066 87.8741C35.24 88.1213 35.3067 88.4195 35.3067 88.7608C35.3067 89.0707 35.2596 89.3297 35.1654 89.5376C35.0713 89.7456 34.9379 89.9103 34.7692 90.0359C34.6005 90.1575 34.4004 90.2478 34.1728 90.2988C33.9453 90.3498 33.6942 90.3772 33.4274 90.3772H31.705C31.5677 90.3772 31.501 90.3105 31.501 90.1811V84.5392L31.4971 84.5353ZM32.372 86.9874H33.3254C33.4862 86.9874 33.6275 86.9756 33.7452 86.9482C33.8668 86.9207 33.9649 86.8736 34.0512 86.803C34.1336 86.7324 34.1964 86.6343 34.2356 86.5127C34.2748 86.3911 34.2945 86.2302 34.2945 86.0379C34.2945 85.8457 34.2748 85.6848 34.2317 85.5632C34.1885 85.4416 34.1218 85.3435 34.0355 85.2729C33.9453 85.2023 33.8354 85.1513 33.6981 85.1238C33.5608 85.0963 33.396 85.0806 33.1998 85.0806C33.0586 85.0806 32.9095 85.0846 32.7526 85.0963C32.5995 85.1081 32.474 85.1238 32.3759 85.1395V86.9913L32.372 86.9874ZM32.372 89.6632H33.3568C33.5412 89.6632 33.6981 89.6475 33.8315 89.6161C33.9649 89.5847 34.0787 89.5337 34.165 89.4592C34.2552 89.3846 34.318 89.2865 34.3612 89.157C34.4043 89.0315 34.4239 88.8706 34.4239 88.6784C34.4239 88.4548 34.3965 88.2782 34.3376 88.1409C34.2788 88.0075 34.1924 87.9055 34.0747 87.8349C33.957 87.7682 33.8119 87.7211 33.6432 87.7015C33.4705 87.6819 33.2704 87.6701 33.0429 87.6701H32.3641V89.6592L32.372 89.6632ZM27.3893 85.1709C27.2519 85.575 27.1107 86.0144 26.9655 86.4891C26.8204 86.9599 26.6791 87.47 26.5497 88.0193H28.2406C28.1072 87.47 27.9699 86.9599 27.8248 86.4891C27.6796 86.0183 27.5344 85.5789 27.3932 85.1709H27.3893ZM28.6055 90.1811C28.5663 89.9221 28.5231 89.6749 28.48 89.4395C28.4368 89.2041 28.3937 88.9648 28.3466 88.7216H26.4359C26.377 88.9962 26.326 89.2748 26.2829 89.5533C26.2358 89.8319 26.1926 90.1065 26.1534 90.3772H25.4943C25.3687 90.3772 25.3099 90.3066 25.3138 90.1614C25.3295 89.9888 25.3569 89.8201 25.3923 89.6553C25.4943 89.1021 25.608 88.5685 25.7336 88.0624C25.8591 87.5563 25.9886 87.0816 26.1181 86.6382C26.2515 86.1949 26.381 85.7869 26.5183 85.4141C26.6517 85.0414 26.7811 84.7118 26.8988 84.4294H27.7581C27.8248 84.4294 27.8797 84.445 27.9111 84.4725C27.9464 84.5 27.9739 84.5471 27.9974 84.6098C28.119 84.9002 28.2485 85.2493 28.3937 85.6574C28.5349 86.0615 28.6801 86.5166 28.8174 87.0109C28.9586 87.5092 29.092 88.0428 29.2176 88.6117C29.3431 89.1806 29.453 89.7691 29.5432 90.3733H28.8135C28.6918 90.3733 28.6251 90.3066 28.6094 90.1771L28.6055 90.1811ZM20.1584 89.6082C20.3311 89.6357 20.5351 89.6632 20.7744 89.6867C21.0137 89.7103 21.2452 89.722 21.461 89.722C21.924 89.722 22.2496 89.6279 22.4419 89.4435C22.6341 89.2591 22.7283 89.0001 22.7283 88.6745C22.7283 88.3214 22.6302 88.0703 22.4379 87.929C22.2418 87.7878 21.9554 87.7132 21.5709 87.7132H20.8843C20.7469 87.7132 20.6802 87.6465 20.6802 87.5171V86.9756H21.5905C21.8063 86.9756 21.9867 86.9443 22.1241 86.8815C22.2614 86.8187 22.3673 86.7402 22.4419 86.6461C22.5164 86.5519 22.5674 86.446 22.5909 86.3322C22.6184 86.2184 22.6302 86.1086 22.6302 86.0066C22.6302 85.6927 22.5439 85.4612 22.3673 85.3121C22.1947 85.163 21.9083 85.0885 21.512 85.0885C21.2609 85.0885 21.049 85.1042 20.8725 85.1356C20.6999 85.167 20.5547 85.1826 20.4488 85.1826C20.3703 85.1826 20.3154 85.163 20.2918 85.1238C20.2644 85.0846 20.2526 85.0336 20.2526 84.9786V84.602C20.4174 84.5392 20.6253 84.4804 20.8725 84.4254C21.1197 84.3705 21.4022 84.343 21.716 84.343C22.3202 84.343 22.7675 84.4804 23.0539 84.7589C23.3403 85.0375 23.4816 85.422 23.4816 85.9202C23.4816 86.2341 23.4109 86.5048 23.2697 86.7363C23.1285 86.9639 22.9205 87.1443 22.638 87.2777C22.9794 87.3994 23.2265 87.5798 23.3756 87.827C23.5247 88.0742 23.5993 88.3684 23.5993 88.7098C23.5993 89.2865 23.4306 89.7259 23.0931 90.028C22.7557 90.3301 22.2653 90.4792 21.6258 90.4792C21.5591 90.4792 21.4649 90.4753 21.3512 90.4675C21.2374 90.4596 21.1197 90.4478 20.9941 90.4322C20.8725 90.4165 20.7509 90.4008 20.6332 90.3812C20.5155 90.3615 20.4213 90.338 20.3468 90.3066C20.2683 90.2791 20.2134 90.2438 20.1898 90.2007C20.1624 90.1575 20.1506 90.1065 20.1506 90.0516V89.6161L20.1584 89.6082ZM16.1016 89.7299C16.3292 89.7299 16.5214 89.6906 16.6745 89.6122C16.8275 89.5337 16.953 89.4082 17.0433 89.2277C17.1335 89.0472 17.2002 88.8118 17.2394 88.5175C17.2787 88.2233 17.2983 87.8545 17.2983 87.4151C17.2983 86.9756 17.2787 86.6068 17.2434 86.3126C17.208 86.0183 17.1413 85.779 17.0472 85.6024C16.953 85.422 16.8275 85.2925 16.6745 85.218C16.5214 85.1395 16.3292 85.1003 16.1016 85.1003C15.8741 85.1003 15.674 85.1395 15.521 85.218C15.368 85.2964 15.2463 85.422 15.1561 85.6024C15.0659 85.7829 14.9992 86.0183 14.9639 86.3126C14.9285 86.6068 14.9089 86.9756 14.9089 87.4151C14.9089 87.8545 14.9285 88.2233 14.9639 88.5175C14.9992 88.8118 15.0659 89.0511 15.1561 89.2277C15.2463 89.4082 15.368 89.5376 15.521 89.6122C15.674 89.6906 15.8662 89.7299 16.1016 89.7299ZM11.9154 84.4372H12.6098C12.6726 84.4372 12.7236 84.4529 12.7589 84.4882C12.7942 84.5235 12.8138 84.5706 12.8138 84.6334V86.956H13.9987C14.0222 86.4185 14.0889 85.983 14.2027 85.6456C14.3165 85.3082 14.4656 85.0414 14.65 84.8492C14.8344 84.653 15.0462 84.5235 15.2934 84.449C15.5406 84.3783 15.8074 84.343 16.0977 84.343C16.4116 84.343 16.698 84.3862 16.9609 84.4686C17.2198 84.551 17.4434 84.704 17.6318 84.9276C17.8162 85.1513 17.9613 85.4612 18.0633 85.8614C18.1653 86.2616 18.2164 86.7795 18.2164 87.4151C18.2164 88.0506 18.1653 88.5685 18.0633 88.9687C17.9613 89.3689 17.8162 89.6789 17.6318 89.9025C17.4474 90.1261 17.2237 90.2791 16.9609 90.3615C16.7019 90.4439 16.4116 90.4871 16.0977 90.4871C15.7995 90.4871 15.5249 90.4518 15.2738 90.3772C15.0227 90.3027 14.803 90.1654 14.6225 89.9613C14.4381 89.7573 14.293 89.4748 14.1792 89.1178C14.0693 88.7569 14.0026 88.29 13.9869 87.7211H12.8138V90.389H12.1194C11.9821 90.389 11.9154 90.3223 11.9154 90.1928V84.445V84.4372ZM9.71827 87.4151C9.71827 88.0506 9.66726 88.5685 9.56525 88.9687C9.46324 89.3689 9.31808 89.6789 9.12976 89.9025C8.94143 90.1261 8.71387 90.2791 8.44708 90.3615C8.18029 90.4439 7.88996 90.4871 7.56824 90.4871C7.24652 90.4871 6.95619 90.4439 6.69332 90.3615C6.43045 90.2791 6.2029 90.1261 6.01457 89.9025C5.82625 89.6789 5.68109 89.3689 5.57908 88.9687C5.47707 88.5685 5.42606 88.0506 5.42606 87.4151C5.42606 86.7795 5.47707 86.2616 5.57908 85.8614C5.68109 85.4612 5.82625 85.1513 6.01457 84.9276C6.2029 84.704 6.43045 84.551 6.69332 84.4686C6.95619 84.3862 7.24652 84.343 7.56824 84.343C7.88996 84.343 8.18029 84.3862 8.44708 84.4686C8.71387 84.551 8.94143 84.704 9.12976 84.9276C9.31808 85.1513 9.46324 85.4612 9.56525 85.8614C9.66726 86.2616 9.71827 86.7795 9.71827 87.4151ZM6.34022 87.4151C6.34022 87.8545 6.35983 88.2233 6.39514 88.5175C6.43045 88.8118 6.49715 89.0511 6.59131 89.2277C6.68548 89.4082 6.81103 89.5376 6.96796 89.6122C7.1249 89.6906 7.32499 89.7299 7.56432 89.7299C7.80365 89.7299 8.00374 89.6906 8.16067 89.6122C8.31761 89.5337 8.44316 89.4082 8.53732 89.2277C8.63148 89.0472 8.69818 88.8118 8.73742 88.5175C8.77665 88.2233 8.79627 87.8545 8.79627 87.4151C8.79627 86.9756 8.77665 86.6068 8.73742 86.3126C8.69818 86.0183 8.63148 85.779 8.53732 85.6024C8.44316 85.422 8.31761 85.2925 8.16067 85.218C8.00374 85.1395 7.80365 85.1003 7.56432 85.1003C7.32499 85.1003 7.1249 85.1395 6.96796 85.218C6.81103 85.2964 6.68548 85.422 6.59131 85.6024C6.49715 85.7829 6.43045 86.0183 6.39514 86.3126C6.35983 86.6068 6.34022 86.9756 6.34022 87.4151ZM2.17356 84.3548C2.37366 84.3548 2.5816 84.3705 2.79346 84.4019C3.00925 84.4333 3.17403 84.4764 3.29566 84.5274C3.36235 84.5549 3.41336 84.5941 3.4369 84.6373C3.46436 84.6844 3.47613 84.7432 3.47613 84.8178V85.2219C3.31135 85.1983 3.12695 85.1787 2.92293 85.1591C2.71892 85.1395 2.51098 85.1277 2.29127 85.1277C2.03232 85.1277 1.81653 85.163 1.63998 85.2336C1.46343 85.3043 1.31826 85.4259 1.21233 85.5985C1.10248 85.7712 1.02793 85.9987 0.98085 86.289C0.93377 86.5794 0.914153 86.9403 0.914153 87.3758C0.914153 87.8545 0.941616 88.2468 1.00047 88.5489C1.05932 88.851 1.14171 89.0864 1.25157 89.2551C1.36142 89.4238 1.50266 89.5415 1.67529 89.6043C1.84792 89.6671 2.04802 89.6985 2.28342 89.6985C2.51882 89.6985 2.73069 89.6828 2.91116 89.6553C3.08772 89.6279 3.22111 89.6122 3.31527 89.6122C3.45652 89.6122 3.53106 89.6789 3.53106 89.8162V90.236C3.36628 90.2988 3.16619 90.3537 2.9347 90.4047C2.70322 90.4518 2.43643 90.4792 2.13433 90.4792C1.75768 90.4792 1.43204 90.4204 1.16525 90.3066C0.898459 90.1928 0.674825 90.0124 0.502195 89.7613C0.329566 89.5141 0.200093 89.1963 0.121625 88.8079C0.0431574 88.4234 0 87.9565 0 87.4151C0 86.8736 0.039234 86.3989 0.121625 86.0066C0.200093 85.6181 0.329566 85.3003 0.502195 85.0532C0.674825 84.806 0.902382 84.6294 1.17702 84.5157C1.45166 84.4058 1.78515 84.347 2.18141 84.347L2.17356 84.3548Z" fill="white"/>
<path d="M87.6859 5.08473C87.6349 5.08473 87.5878 5.07296 87.5564 5.04942C87.5211 5.02588 87.5054 4.98272 87.5054 4.92779C87.5054 4.89248 87.5172 4.8454 87.5407 4.78263C87.6624 4.42952 87.8232 4.06072 88.0233 3.6723C88.2273 3.28389 88.4784 2.89155 88.7805 2.49528C88.6667 2.33835 88.5451 2.16179 88.4196 1.96562C88.294 1.77338 88.1724 1.56544 88.0586 1.35357C87.9448 1.13779 87.835 0.921999 87.7369 0.706212C87.6388 0.490425 87.5603 0.282485 87.5015 0.078468H88.1724C88.2273 0.078468 88.2666 0.0941616 88.2901 0.121625C88.3176 0.149089 88.3372 0.192247 88.3529 0.243251C88.4 0.39234 88.4588 0.5532 88.5294 0.717983C88.6 0.886689 88.6746 1.05147 88.757 1.22018C88.8394 1.38496 88.9218 1.54582 89.0081 1.70276C89.0944 1.85577 89.1807 1.99701 89.2592 2.11471C89.3455 1.98524 89.4357 1.83615 89.5299 1.67137C89.6241 1.50659 89.7143 1.33396 89.8006 1.1574C89.8869 0.976927 89.9654 0.796451 90.036 0.608127C90.1066 0.423727 90.1655 0.243251 90.2086 0.0745446H90.754C90.8011 0.0745446 90.8442 0.0863148 90.8835 0.105932C90.9188 0.125549 90.9384 0.168706 90.9384 0.231481C90.9384 0.255021 90.9345 0.282485 90.9227 0.309949C90.9149 0.337413 90.9031 0.3688 90.8952 0.40411C90.8364 0.568893 90.7618 0.741523 90.6716 0.925923C90.5814 1.11032 90.4833 1.29472 90.3734 1.47912C90.2675 1.66352 90.1576 1.84792 90.0399 2.02055C89.9262 2.19711 89.8124 2.36189 89.7064 2.51098C90.0517 2.95432 90.3342 3.39767 90.5539 3.84886C90.7697 4.29613 90.9345 4.70808 91.0443 5.07688H90.3734C90.3146 5.07688 90.2753 5.06119 90.2479 5.02588C90.2204 4.99057 90.1969 4.94349 90.1812 4.88071C90.0909 4.59823 89.9693 4.28435 89.8202 3.94302C89.6711 3.60168 89.475 3.26035 89.2356 2.91901C88.9806 3.28389 88.7727 3.65661 88.6157 4.03326C88.4588 4.4099 88.3293 4.75909 88.2273 5.07688H87.678L87.6859 5.08473ZM84.9866 0.0745446H85.5712C85.685 0.0745446 85.7438 0.129472 85.7438 0.239328V5.08081H85.1592C85.0454 5.08081 84.9866 5.02588 84.9866 4.91602V0.0745446ZM82.558 4.48052C82.868 4.48052 83.0994 4.41383 83.2564 4.28043C83.4133 4.14704 83.4918 3.90378 83.4918 3.54676C83.4918 3.18973 83.4133 2.97002 83.2564 2.84054C83.0994 2.71107 82.8601 2.64437 82.5384 2.64437H81.8596V4.48052H82.5619H82.558ZM81.1142 0.0745446H81.6831C81.7969 0.0745446 81.8557 0.129472 81.8557 0.239328V2.04017H82.558C82.8052 2.04017 83.0288 2.06371 83.2289 2.11471C83.4329 2.16572 83.6056 2.24811 83.7546 2.36581C83.9037 2.47959 84.0214 2.63653 84.0999 2.82877C84.1823 3.02102 84.2215 3.25642 84.2215 3.53499C84.2215 3.81355 84.1823 4.06857 84.1038 4.26474C84.0254 4.46091 83.9155 4.62177 83.7703 4.74339C83.6291 4.86502 83.4604 4.95133 83.2603 5.00234C83.0641 5.05726 82.8444 5.08081 82.609 5.08081H81.279C81.1652 5.08081 81.1063 5.02588 81.1063 4.91602V0.0745446H81.1142ZM78.9367 0.0745446C79.0505 0.0745446 79.1093 0.129472 79.1093 0.239328V5.08081H78.5247C78.4737 5.08081 78.4306 5.06511 78.3992 5.03765C78.3678 5.01018 78.3521 4.96703 78.3521 4.91602V2.83662H76.4964V5.08473H75.9118C75.798 5.08473 75.7391 5.0298 75.7391 4.91995V0.0745446H76.3237C76.3786 0.0745446 76.4179 0.0902382 76.4493 0.117702C76.4807 0.145166 76.4964 0.188323 76.4964 0.239328V2.19711H78.3521V0.0745446H78.9367ZM70.7172 0.160859C70.929 0.121625 71.1684 0.0902382 71.4391 0.0627744C71.7098 0.0353106 71.9531 0.0235404 72.1688 0.0235404C72.4082 0.0235404 72.6318 0.0470808 72.828 0.0902382C73.0281 0.137319 73.2007 0.211864 73.3419 0.313872C73.4832 0.415881 73.593 0.557123 73.6754 0.729753C73.7539 0.902382 73.7931 1.11425 73.7931 1.36534C73.7931 1.64783 73.7421 1.88716 73.6362 2.07156C73.5342 2.25988 73.3694 2.40112 73.1497 2.49921C73.44 2.60514 73.6401 2.76208 73.7539 2.97394C73.8677 3.18188 73.9226 3.43298 73.9226 3.72331C73.9226 3.98225 73.8834 4.20196 73.8049 4.37852C73.7264 4.55507 73.6126 4.69239 73.4714 4.79832C73.3302 4.90033 73.1615 4.97487 72.9692 5.01803C72.777 5.06119 72.5651 5.08473 72.3415 5.08473H70.8898C70.776 5.08473 70.7172 5.0298 70.7172 4.91995V0.164783V0.160859ZM71.4548 2.22849H72.2552C72.3885 2.22849 72.5062 2.21672 72.6083 2.19711C72.7103 2.17356 72.7966 2.13433 72.8633 2.07548C72.9339 2.01663 72.9849 1.93424 73.0202 1.82831C73.0555 1.7263 73.0712 1.5929 73.0712 1.42812C73.0712 1.26334 73.0516 1.12994 73.0163 1.02793C72.981 0.925923 72.9261 0.843531 72.8515 0.780757C72.777 0.721906 72.6828 0.678748 72.5651 0.655208C72.4513 0.631668 72.3101 0.619898 72.1453 0.619898C72.0237 0.619898 71.8981 0.623821 71.7687 0.635591C71.6392 0.643438 71.5332 0.655208 71.4509 0.670902V2.23242L71.4548 2.22849ZM71.4548 4.48445H72.2865C72.4396 4.48445 72.5729 4.47268 72.6867 4.44521C72.8005 4.41775 72.8947 4.37459 72.9692 4.31182C73.0438 4.24904 73.0987 4.16665 73.134 4.06072C73.1693 3.95479 73.1889 3.82139 73.1889 3.65661C73.1889 3.46829 73.1654 3.3192 73.1183 3.20542C73.0712 3.09164 72.9967 3.00533 72.8986 2.9504C72.8005 2.89155 72.6789 2.85624 72.5337 2.83662C72.3885 2.82093 72.2198 2.81308 72.0276 2.81308H71.4587V4.48837L71.4548 4.48445ZM67.2057 0.698366C67.092 1.0397 66.9703 1.4085 66.8487 1.80869C66.7271 2.20495 66.6094 2.63653 66.4995 3.09949H67.9237C67.8139 2.63653 67.6962 2.20888 67.5706 1.80869C67.4451 1.41242 67.3234 1.0397 67.2018 0.698366H67.2057ZM68.2337 4.91995C68.1984 4.70416 68.163 4.49622 68.1277 4.29612C68.0924 4.09603 68.0532 3.89594 68.014 3.69192H66.4014C66.3504 3.9234 66.3073 4.15488 66.268 4.39421C66.2288 4.62961 66.1935 4.86109 66.1582 5.08865H65.6011C65.4951 5.08865 65.4441 5.0298 65.448 4.90818C65.4637 4.76301 65.4834 4.62177 65.5147 4.48052C65.6011 4.01364 65.6991 3.56637 65.8051 3.13872C65.911 2.71107 66.0209 2.31088 66.1307 1.93816C66.2445 1.56544 66.3544 1.22018 66.4681 0.910229C66.5819 0.596357 66.6878 0.321719 66.7899 0.078468H67.5118C67.5706 0.078468 67.6138 0.0902382 67.6412 0.113779C67.6687 0.137319 67.6962 0.176553 67.7119 0.227557C67.8139 0.474732 67.9237 0.768987 68.0453 1.11032C68.167 1.45166 68.2847 1.83223 68.4024 2.25203C68.5201 2.67184 68.6339 3.1191 68.7398 3.59776C68.8457 4.07641 68.936 4.57076 69.0144 5.08081H68.3984C68.2964 5.08081 68.2376 5.02588 68.2258 4.91602L68.2337 4.91995ZM61.505 2.62083C61.6306 2.64437 61.7561 2.66399 61.8817 2.68361C62.0072 2.6993 62.1328 2.70715 62.2583 2.70715C62.4113 2.70715 62.5487 2.69145 62.6624 2.66007C62.7762 2.62868 62.8743 2.57375 62.9488 2.49528C63.0234 2.41682 63.0783 2.30696 63.1175 2.17356C63.1568 2.04017 63.1764 1.86754 63.1764 1.6596C63.1764 1.43989 63.1568 1.25941 63.1136 1.12602C63.0744 0.992621 63.0116 0.886689 62.9292 0.812144C62.8468 0.7376 62.7488 0.686595 62.631 0.659131C62.5133 0.631668 62.3799 0.619898 62.2309 0.619898C62.0818 0.619898 61.9484 0.623821 61.8228 0.635591C61.6934 0.643438 61.5913 0.655208 61.509 0.670902V2.62083H61.505ZM60.9283 5.08473C60.8145 5.08473 60.7557 5.0298 60.7557 4.91995V0.164783C60.9675 0.125549 61.2069 0.0941616 61.4697 0.0666978C61.7365 0.039234 61.9837 0.0274638 62.2152 0.0274638C62.7998 0.0274638 63.2274 0.153013 63.502 0.40411C63.7767 0.655208 63.914 1.07501 63.914 1.6596C63.914 1.95778 63.8748 2.2128 63.8002 2.41682C63.7257 2.62476 63.6197 2.79346 63.4863 2.92293C63.353 3.05241 63.1882 3.14657 62.992 3.20934C62.7958 3.26819 62.58 3.29958 62.3446 3.29958C62.2191 3.29958 62.0857 3.29173 61.9484 3.27604C61.8071 3.26035 61.662 3.23288 61.509 3.2015V5.08865H60.9322L60.9283 5.08473ZM53.3287 0.0745446H53.8779C53.9917 0.0745446 54.0506 0.129472 54.0506 0.239328V3.75862C54.1212 3.61738 54.2154 3.44475 54.3291 3.23288C54.4429 3.02102 54.5645 2.79739 54.6979 2.55806C54.8313 2.31873 54.9686 2.07548 55.1099 1.82046C55.2511 1.56936 55.3884 1.33003 55.514 1.1064C55.6435 0.882765 55.7572 0.678749 55.8593 0.498272C55.9613 0.317796 56.0437 0.176553 56.1025 0.0745446H56.6518C56.7656 0.0745446 56.8244 0.133396 56.8244 0.247174V5.08081H56.2751C56.1614 5.08081 56.1025 5.02588 56.1025 4.91602V1.2908C56.0476 1.37711 55.973 1.51443 55.8671 1.69883C55.7651 1.88323 55.6474 2.0951 55.514 2.3305C55.3806 2.5659 55.2394 2.82093 55.0903 3.08772C54.9412 3.35843 54.796 3.61738 54.6587 3.86847C54.5214 4.11957 54.3958 4.35105 54.2781 4.56684C54.1643 4.78263 54.0702 4.95526 54.0035 5.08473H53.4974C53.3836 5.08473 53.3247 5.0298 53.3247 4.91995V0.0745446H53.3287ZM50.394 4.42952V0.710136H49.0796C49.0757 0.874919 49.0678 1.06717 49.06 1.2908C49.0522 1.51443 49.0404 1.74591 49.0286 1.98916C49.0129 2.22849 48.9972 2.46782 48.9815 2.6993C48.9658 2.9347 48.9462 3.14264 48.9266 3.32312C48.9031 3.56245 48.8599 3.77431 48.8011 3.95479C48.7422 4.13527 48.6716 4.2922 48.5892 4.42952H50.394ZM47.2866 4.42952H47.7653C47.8673 4.33144 47.9575 4.1745 48.0438 3.95087C48.1262 3.72723 48.1851 3.42513 48.2125 3.04456C48.2282 2.84054 48.2439 2.61299 48.2636 2.35404C48.2832 2.0951 48.2989 1.83223 48.3146 1.56544C48.3302 1.29865 48.342 1.03578 48.3538 0.77291C48.3656 0.513966 48.3734 0.278562 48.3773 0.0706212H50.955C51.0649 0.0706212 51.1198 0.125549 51.1198 0.235404V4.4256H51.4964C51.6102 4.4256 51.6691 4.48052 51.6691 4.59038V6.1362H51.1276C51.0139 6.1362 50.955 6.08127 50.955 5.97142V5.07688H48.0007V6.14012H47.4593C47.3455 6.14012 47.2866 6.0852 47.2866 5.97534V4.42952ZM45.6074 0.0745446C45.7173 0.0745446 45.7722 0.129472 45.7722 0.239328V0.694442H43.7046V2.23242H45.4152C45.525 2.23242 45.5799 2.28734 45.5799 2.3972V2.86016H43.7006V4.45698H45.682C45.7369 4.45698 45.7761 4.47268 45.8075 4.50014C45.8389 4.52761 45.8546 4.57076 45.8546 4.62177V5.07688H43.116C43.0023 5.07688 42.9434 5.02195 42.9434 4.9121V0.0745446H45.6035H45.6074ZM38.7258 2.61691C38.8513 2.64045 38.9769 2.66007 39.1024 2.67968C39.228 2.69538 39.3535 2.70322 39.4791 2.70322C39.6321 2.70322 39.7694 2.68753 39.8832 2.65614C39.9969 2.62476 40.095 2.56983 40.1696 2.49136C40.2441 2.41289 40.299 2.30304 40.3383 2.16964C40.3775 2.03625 40.3971 1.86362 40.3971 1.65568C40.3971 1.43597 40.3775 1.25549 40.3344 1.12209C40.2951 0.988697 40.2323 0.882765 40.15 0.808221C40.0676 0.733676 39.9695 0.682672 39.8518 0.655208C39.7341 0.627744 39.6007 0.615974 39.4516 0.615974C39.3025 0.615974 39.1691 0.619897 39.0436 0.631668C38.9141 0.639515 38.8121 0.651285 38.7297 0.666978V2.61691H38.7258ZM38.149 5.08081C38.0352 5.08081 37.9764 5.02588 37.9764 4.91602V0.164783C38.1883 0.125549 38.4276 0.0941616 38.6905 0.0666978C38.9572 0.039234 39.2044 0.0274638 39.4359 0.0274638C40.0205 0.0274638 40.4481 0.153013 40.7228 0.40411C40.9974 0.655208 41.1347 1.07501 41.1347 1.6596C41.1347 1.95778 41.0955 2.2128 41.021 2.41682C40.9464 2.62476 40.8405 2.79346 40.7071 2.92293C40.5737 3.05241 40.4089 3.14657 40.2127 3.20934C40.0166 3.26819 39.8008 3.29958 39.5654 3.29958C39.4398 3.29958 39.3064 3.29173 39.1691 3.27604C39.0279 3.26035 38.8827 3.23288 38.7297 3.2015V5.08865H38.1529L38.149 5.08081ZM35.0809 0C35.2496 0 35.4223 0.0117702 35.6067 0.039234C35.7871 0.0666978 35.9284 0.102008 36.0304 0.145166C36.0892 0.168706 36.1285 0.200093 36.1481 0.239328C36.1716 0.278562 36.1795 0.329566 36.1795 0.39234V0.733676C36.0382 0.714059 35.8852 0.694442 35.7126 0.678749C35.54 0.663055 35.3634 0.655208 35.1829 0.655208C34.9671 0.655208 34.7827 0.686595 34.6337 0.745446C34.4846 0.804297 34.3629 0.906306 34.2727 1.05147C34.1825 1.19664 34.1158 1.38888 34.0765 1.63214C34.0373 1.87539 34.0177 2.18141 34.0177 2.54629C34.0177 2.9504 34.0412 3.27996 34.0883 3.53499C34.1354 3.79001 34.206 3.9901 34.3002 4.13134C34.3943 4.27258 34.512 4.37067 34.6572 4.4256C34.8024 4.48053 34.9711 4.50407 35.1712 4.50407C35.3713 4.50407 35.5478 4.4923 35.6969 4.46875C35.846 4.44521 35.9598 4.43344 36.0382 4.43344C36.1599 4.43344 36.2187 4.4923 36.2187 4.60607V4.95918C36.0775 5.01411 35.9127 5.05726 35.7165 5.10042C35.5203 5.13966 35.2967 5.1632 35.0417 5.1632C34.7239 5.1632 34.4532 5.11612 34.2256 5.01803C33.9981 4.91995 33.8137 4.76693 33.6646 4.55899C33.5194 4.35105 33.4096 4.08034 33.3429 3.75862C33.2762 3.43298 33.2408 3.04064 33.2408 2.58552C33.2408 2.13041 33.2762 1.7263 33.3429 1.40065C33.4096 1.07501 33.5194 0.804297 33.6646 0.60028C33.8097 0.39234 34.002 0.243251 34.2335 0.149089C34.4649 0.0549276 34.7474 0.0078468 35.077 0.0078468L35.0809 0ZM29.3802 0.0706212C29.4901 0.0706212 29.545 0.125549 29.545 0.235404V0.690519H27.4774V2.22849H29.188C29.2978 2.22849 29.3528 2.28342 29.3528 2.39328V2.85624H27.4734V4.45306H29.4548C29.5097 4.45306 29.5489 4.46875 29.5803 4.49622C29.6117 4.52368 29.6274 4.56684 29.6274 4.61784V5.07296H26.8889C26.7751 5.07296 26.7162 5.01803 26.7162 4.90818V0.0745446H29.3763L29.3802 0.0706212ZM23.9581 0.0706212H24.5427C24.6564 0.0706212 24.7153 0.125549 24.7153 0.235404V5.07688H24.1307C24.0169 5.07688 23.9581 5.02195 23.9581 4.9121V0.0745446V0.0706212ZM21.5295 4.4766C21.8394 4.4766 22.0709 4.4099 22.2279 4.27651C22.3848 4.14311 22.4633 3.89986 22.4633 3.54283C22.4633 3.1858 22.3848 2.96609 22.2279 2.83662C22.0709 2.70715 21.8316 2.64045 21.5099 2.64045H20.8311V4.4766H21.5334H21.5295ZM20.0857 0.0745446H20.6546C20.7683 0.0745446 20.8272 0.129472 20.8272 0.239328V2.04017H21.5295C21.7767 2.04017 22.0003 2.06371 22.2004 2.11471C22.4044 2.16572 22.577 2.24811 22.7261 2.36581C22.8752 2.47959 22.9929 2.63653 23.0714 2.82877C23.1538 3.02102 23.193 3.25642 23.193 3.53499C23.193 3.81355 23.1538 4.06857 23.0753 4.26474C22.9968 4.46091 22.887 4.62177 22.7418 4.74339C22.6006 4.86502 22.4319 4.95133 22.2318 5.00234C22.0356 5.05726 21.8159 5.08081 21.5805 5.08081H20.2505C20.1367 5.08081 20.0778 5.02588 20.0778 4.91602V0.0745446H20.0857ZM15.0676 0.160859C15.2795 0.121625 15.5188 0.0902382 15.7896 0.0627744C16.0603 0.0353106 16.3035 0.0235404 16.5193 0.0235404C16.7586 0.0235404 16.9823 0.0470808 17.1784 0.0902382C17.3785 0.137319 17.5512 0.211864 17.6924 0.313872C17.8336 0.415881 17.9435 0.557123 18.0259 0.729753C18.1044 0.902382 18.1436 1.11425 18.1436 1.36534C18.1436 1.64783 18.0926 1.88716 17.9867 2.07156C17.8846 2.25988 17.7199 2.40112 17.5002 2.49921C17.7905 2.60514 17.9906 2.76208 18.1044 2.97394C18.2181 3.18188 18.2731 3.43298 18.2731 3.72331C18.2731 3.98225 18.2338 4.20196 18.1554 4.37852C18.0769 4.55507 17.9631 4.69239 17.8219 4.79832C17.6806 4.90033 17.5119 4.97487 17.3197 5.01803C17.1274 5.06119 16.9156 5.08473 16.6919 5.08473H15.2403C15.1265 5.08473 15.0676 5.0298 15.0676 4.91995V0.164783V0.160859ZM15.8052 2.22849H16.6056C16.739 2.22849 16.8567 2.21672 16.9587 2.19711C17.0607 2.17356 17.147 2.13433 17.2137 2.07548C17.2844 2.01663 17.3354 1.93424 17.3707 1.82831C17.406 1.7263 17.4217 1.5929 17.4217 1.42812C17.4217 1.26334 17.4021 1.12994 17.3668 1.02793C17.3314 0.925923 17.2765 0.843531 17.202 0.780757C17.1274 0.721906 17.0333 0.678748 16.9156 0.655208C16.8018 0.631668 16.6605 0.619898 16.4958 0.619898C16.3741 0.619898 16.2486 0.623821 16.1191 0.635591C15.9896 0.643438 15.8837 0.655208 15.8013 0.670902V2.23242L15.8052 2.22849ZM15.8052 4.48445H16.637C16.79 4.48445 16.9234 4.47268 17.0372 4.44521C17.151 4.41775 17.2451 4.37459 17.3197 4.31182C17.3942 4.24904 17.4492 4.16665 17.4845 4.06072C17.5198 3.95479 17.5394 3.82139 17.5394 3.65661C17.5394 3.46829 17.5158 3.3192 17.4688 3.20542C17.4217 3.09164 17.3471 3.00533 17.2491 2.9504C17.151 2.89155 17.0293 2.85624 16.8842 2.83662C16.739 2.82093 16.5703 2.81308 16.3781 2.81308H15.8092V4.48837L15.8052 4.48445ZM10.8461 2.62083C10.9716 2.64437 11.0972 2.66399 11.2227 2.68361C11.3483 2.6993 11.4738 2.70715 11.5994 2.70715C11.7524 2.70715 11.8897 2.69145 12.0035 2.66007C12.1172 2.62868 12.2153 2.57375 12.2899 2.49528C12.3644 2.41682 12.4193 2.30696 12.4586 2.17356C12.4978 2.04017 12.5174 1.86754 12.5174 1.6596C12.5174 1.43989 12.4978 1.25941 12.4547 1.12602C12.4154 0.992621 12.3527 0.886689 12.2703 0.812144C12.1879 0.7376 12.0898 0.686595 11.9721 0.659131C11.8544 0.631668 11.721 0.619898 11.5719 0.619898C11.4228 0.619898 11.2894 0.623821 11.1639 0.635591C11.0344 0.643438 10.9324 0.655208 10.85 0.670902V2.62083H10.8461ZM10.2693 5.08473C10.1555 5.08473 10.0967 5.0298 10.0967 4.91995V0.164783C10.3086 0.125549 10.5479 0.0941616 10.8108 0.0666978C11.0775 0.039234 11.3247 0.0274638 11.5562 0.0274638C12.1408 0.0274638 12.5684 0.153013 12.8431 0.40411C13.1177 0.655208 13.255 1.07501 13.255 1.6596C13.255 1.95778 13.2158 2.2128 13.1413 2.41682C13.0667 2.62476 12.9608 2.79346 12.8274 2.92293C12.694 3.05241 12.5292 3.14657 12.333 3.20934C12.1369 3.26819 11.9211 3.29958 11.6857 3.29958C11.5601 3.29958 11.4267 3.29173 11.2894 3.27604C11.1482 3.26035 11.003 3.23288 10.85 3.2015V5.08865H10.2732L10.2693 5.08473ZM8.05653 0.0745446C8.16638 0.0745446 8.22131 0.129472 8.22131 0.239328V0.694442H6.15368V2.23242H7.86428C7.97413 2.23242 8.02906 2.28734 8.02906 2.3972V2.86016H6.14975V4.45698H8.13107C8.186 4.45698 8.22523 4.47268 8.25662 4.50014C8.28801 4.52761 8.3037 4.57076 8.3037 4.62177V5.07688H5.56517C5.45139 5.07688 5.39254 5.02195 5.39254 4.9121V0.0745446H8.0526H8.05653ZM3.3916 5.08081H2.79917C2.68931 5.08081 2.63438 5.02588 2.63438 4.91602V0.710136H0.798232V5.08081H0.213645C0.0998667 5.08081 0.0410156 5.02588 0.0410156 4.91602V0.0745446H3.21897C3.2739 0.0745446 3.31313 0.0902382 3.34452 0.117702C3.37591 0.145166 3.3916 0.188323 3.3916 0.239328V5.08081Z" fill="white"/>
<path fill-rule="evenodd" clip-rule="evenodd" d="M84.6488 74.5558H84.28V73.8574H84.6488C85.1 73.8574 85.1 74.1163 85.1 74.1987C85.1 74.2811 85.1 74.5558 84.6488 74.5558ZM85.5983 74.1987C85.5983 73.6808 85.2334 73.3591 84.6488 73.3591H83.7818V75.7053H84.28V75.0501H84.6488C84.6724 75.0501 84.692 75.0501 84.7155 75.0501L85.1942 75.7053H85.8102L85.2256 74.9049C85.4649 74.7558 85.5944 74.5048 85.5944 74.1987H85.5983ZM84.6645 76.3919C83.6405 76.3919 82.8048 75.5562 82.8048 74.5322C82.8048 73.5082 83.6405 72.6725 84.6645 72.6725C85.6885 72.6725 86.5242 73.5082 86.5242 74.5322C86.5242 75.5562 85.6885 76.3919 84.6645 76.3919ZM84.6645 71.9663C83.2482 71.9663 82.0986 73.1159 82.0986 74.5322C82.0986 75.9486 83.2482 77.0981 84.6645 77.0981C86.0809 77.0981 87.2304 75.9486 87.2304 74.5322C87.2304 73.1159 86.0809 71.9663 84.6645 71.9663Z" fill="white"/>
<path d="M164.894 55.46L160.103 44.09H138.262L133.471 55.46H122.023L145.489 0.163574H153.445L176.26 55.46H164.894ZM141.589 35.486H157.016L149.385 15.9984L141.589 35.486Z" fill="#FFDC00"/>
<path d="M183.203 1.30029H196.602C202.502 1.30029 206.912 2.43808 209.835 4.70973C213.19 7.30702 214.869 11.0421 214.869 15.915C214.869 20.7878 212.841 24.2797 208.78 26.5513C211.542 26.9868 213.896 28.1207 215.846 29.9607C218.443 32.4521 219.742 35.8341 219.742 40.1106C219.742 44.6578 218.2 48.3105 215.112 51.0726C211.809 53.9955 207.238 55.4589 201.388 55.4589H183.199V1.30029H183.203ZM193.761 9.90824V23.7932H196.766C197.308 23.7932 197.806 23.7814 198.269 23.7539C198.728 23.7265 199.407 23.5813 200.297 23.3067C201.192 23.0359 201.949 22.6711 202.573 22.212C203.193 21.753 203.75 21.0468 204.237 20.1012C204.723 19.1557 204.966 18.0297 204.966 16.731C204.966 14.4045 204.209 12.686 202.695 11.5757C201.176 10.4693 199.23 9.91216 196.849 9.91216H193.765L193.761 9.90824ZM193.761 31.9146V46.8549H198.308C201.447 46.8549 203.856 46.3684 205.535 45.3954C207.756 44.0968 208.866 42.0134 208.866 39.1415C208.866 36.2696 207.54 34.1627 204.888 32.97C203.369 32.2677 200.96 31.9146 197.661 31.9146H193.765H193.761Z" fill="#FFDC00"/>
<path d="M256.438 10.3947H244.26V55.4589H233.706V10.3947H221.528V1.30029H256.442V10.3947H256.438Z" fill="#FFDC00"/>
<path d="M265.987 8.04162C271.374 2.73718 278.314 0.0849609 286.812 0.0849609C295.31 0.0849609 302.255 2.73718 307.638 8.04162C313.025 13.3461 315.72 20.1414 315.72 28.4237C315.72 36.706 313.025 43.4856 307.638 48.7626C302.251 54.0396 295.307 56.68 286.812 56.68C278.318 56.68 271.37 54.0396 265.987 48.7626C260.6 43.4856 257.905 36.7021 257.905 28.4237C257.905 20.1453 260.596 13.35 265.987 8.04162ZM273.822 41.8613C277.177 45.3532 281.508 47.0991 286.812 47.0991C292.117 47.0991 296.448 45.3532 299.803 41.8613C303.157 38.3695 304.837 33.8929 304.837 28.4237C304.837 22.9545 303.146 18.4622 299.76 14.9429C296.374 11.4236 292.058 9.66591 286.808 9.66591C281.559 9.66591 277.239 11.4236 273.857 14.9429C270.471 18.4622 268.78 22.9545 268.78 28.4237C268.78 33.8929 270.456 38.3695 273.814 41.8613H273.822Z" fill="#FFDC00"/>
<path d="M324.529 55.4629V1.30029H335.087V46.3645H352.463V1.30029H363.021V46.3645H380.398V1.30029H390.952V55.4589H324.533L324.529 55.4629Z" fill="#FFDC00"/>
<path d="M411.073 1.30029V24.1973L430.964 1.30029H444.28L421.383 26.312L445.5 55.4629H431.533L412.289 31.1849L411.073 32.4011V55.4629H400.515V1.30029H411.073Z" fill="#FFDC00"/>
<path d="M452.846 8.04162C458.233 2.73718 465.174 0.0849609 473.672 0.0849609C482.17 0.0849609 489.114 2.73718 494.497 8.04162C499.884 13.3461 502.579 20.1414 502.579 28.4237C502.579 36.706 499.884 43.4856 494.497 48.7626C489.11 54.0396 482.166 56.68 473.672 56.68C465.178 56.68 458.229 54.0396 452.846 48.7626C447.46 43.4856 444.764 36.7021 444.764 28.4237C444.764 20.1453 447.456 13.35 452.846 8.04162ZM460.681 41.8613C464.036 45.3532 468.367 47.0991 473.672 47.0991C478.976 47.0991 483.308 45.3532 486.662 41.8613C490.017 38.3695 491.696 33.8929 491.696 28.4237C491.696 22.9545 490.005 18.4622 486.619 14.9429C483.233 11.4236 478.917 9.66591 473.668 9.66591C468.418 9.66591 464.099 11.4236 460.717 14.9429C457.331 18.4622 455.64 22.9545 455.64 28.4237C455.64 33.8929 457.315 38.3695 460.674 41.8613H460.681Z" fill="#FFDC00"/>
<path d="M515.329 1.30029H552.194V55.4589H541.64V10.3947H525.887V34.4295C525.887 36.4854 525.86 38.0312 525.805 39.0591C525.75 40.087 525.562 41.5505 525.236 43.4455C524.91 45.3405 524.314 47.004 523.451 48.44C522.584 49.8759 521.446 51.1863 520.041 52.3791C517.228 54.7606 513.627 55.9533 509.244 55.9533C507.726 55.9533 506.239 55.7924 504.779 55.4668V46.3723C505.862 46.698 506.863 46.8588 507.785 46.8588C509.735 46.8588 511.359 46.2115 512.657 44.9089C513.525 44.0418 514.16 42.853 514.568 41.3347C514.972 39.8202 515.204 38.5216 515.259 37.4387C515.314 36.3559 515.341 34.6531 515.341 32.3226V1.30029H515.329Z" fill="#FFDC00"/>
<path d="M601.409 55.46L596.619 44.09H574.777L569.987 55.46H558.538L582.004 0.163574H589.961L612.775 55.46H601.409ZM578.104 35.486H593.531L585.9 15.9984L578.104 35.486Z" fill="#FFDC00"/>
<path d="M132.661 71.5238H123.732V90.4738H122.46C122.166 90.4738 122.017 90.3248 122.017 90.0305V69.9858H132.218C132.512 69.9858 132.661 70.1349 132.661 70.4292V71.5238Z" fill="white"/>
<path d="M162.908 69.9858C163.638 69.9858 164.003 70.3311 164.003 71.0216V88.9359H165.717C166.012 88.9359 166.161 89.085 166.161 89.3792V94.8171H164.89C164.595 94.8171 164.446 94.668 164.446 94.3737V90.4699H150.966V94.8171H149.694C149.4 94.8171 149.251 94.668 149.251 94.3737V88.9359H151.056C151.448 88.5435 151.833 87.8766 152.209 86.9389C152.582 86.0012 152.849 84.7182 153.006 83.0822C153.084 82.2543 153.17 81.2656 153.257 80.1121C153.347 78.9587 153.425 77.7777 153.492 76.5654C153.563 75.3531 153.626 74.1643 153.684 73.0029C153.743 71.8416 153.783 70.8333 153.802 69.9858H162.908ZM155.489 71.5238C155.47 72.2339 155.434 73.1481 155.387 74.2741C155.336 75.3962 155.277 76.5732 155.211 77.8052C155.14 79.0371 155.062 80.2298 154.975 81.3833C154.885 82.5368 154.795 83.4863 154.693 84.2356C154.555 85.24 154.355 86.1424 154.1 86.9389C153.845 87.7392 153.52 88.4023 153.123 88.9359H162.288V71.5238H155.489Z" fill="white"/>
<path d="M197.822 71.5199H188.362V79.4138H196.672C196.966 79.4138 197.116 79.5629 197.116 79.8571V80.9517H188.366V88.9359H197.739C198.034 88.9359 198.183 89.085 198.183 89.3792V90.4738H187.095C186.801 90.4738 186.652 90.3248 186.652 90.0305V69.9858H197.382C197.677 69.9858 197.826 70.1349 197.826 70.4292V71.5238L197.822 71.5199Z" fill="white"/>
<path d="M243.23 90.472C242.936 90.472 242.787 90.323 242.787 90.0287V70.3371C243.14 70.2783 243.544 70.2194 243.999 70.1606C244.451 70.1017 244.933 70.0468 245.432 69.9997C245.934 69.9487 246.448 69.9095 246.969 69.882C247.491 69.8506 247.997 69.8389 248.492 69.8389C250.838 69.8389 252.549 70.3568 253.62 71.3925C254.695 72.4283 255.232 74.1193 255.232 76.4616C255.232 77.6661 255.087 78.6783 254.804 79.5061C254.518 80.334 254.114 81.0088 253.592 81.5306C253.07 82.0524 252.435 82.4291 251.685 82.6527C250.936 82.8803 250.1 82.994 249.174 82.994C248.562 82.994 247.86 82.9548 247.06 82.8763C246.259 82.7979 245.408 82.6684 244.502 82.4918V90.476H243.23V90.472ZM244.502 80.9539C245.192 81.1108 245.91 81.2364 246.66 81.3227C247.409 81.4129 248.158 81.4561 248.908 81.4561C249.657 81.4561 250.348 81.3776 250.916 81.2207C251.489 81.0637 251.964 80.793 252.348 80.4085C252.733 80.024 253.019 79.5101 253.204 78.8705C253.392 78.231 253.486 77.4267 253.486 76.4616C253.486 75.3787 253.372 74.4999 253.145 73.829C252.917 73.1581 252.592 72.6441 252.168 72.2753C251.744 71.9104 251.222 71.6672 250.603 71.5534C249.983 71.4357 249.288 71.3768 248.519 71.3768C247.633 71.3768 246.852 71.4082 246.185 71.4671C245.514 71.5259 244.953 71.5965 244.498 71.675V80.9578L244.502 80.9539Z" fill="white"/>
<path d="M287.55 71.5199H278.09V79.4138H286.4C286.694 79.4138 286.844 79.5629 286.844 79.8571V80.9517H278.094V88.9359H287.467C287.762 88.9359 287.911 89.085 287.911 89.3792V90.4738H276.823C276.529 90.4738 276.38 90.3248 276.38 90.0305V69.9858H287.11C287.405 69.9858 287.554 70.1349 287.554 70.4292V71.5238L287.55 71.5199Z" fill="white"/>
<path d="M319.741 90.031C319.584 89.0855 319.404 88.1242 319.207 87.1473C319.011 86.1704 318.791 85.1738 318.556 84.1459H310.395C310.14 85.2091 309.909 86.2645 309.701 87.3082C309.493 88.3518 309.301 89.4072 309.124 90.4704H307.943C307.606 90.4704 307.461 90.3213 307.5 90.0271C307.892 87.6417 308.367 85.3896 308.92 83.271C309.473 81.1523 310.034 79.2299 310.607 77.5075C311.18 75.7851 311.729 74.2746 312.263 72.9838C312.797 71.693 313.248 70.6926 313.624 69.9824H315.045C315.182 69.9824 315.296 70.002 315.386 70.0413C315.476 70.0805 315.566 70.1982 315.668 70.3944C316.041 71.2026 316.5 72.2776 317.042 73.6155C317.583 74.9573 318.128 76.4992 318.682 78.2412C319.235 79.9871 319.764 81.8899 320.278 83.9615C320.792 86.0331 321.224 88.1988 321.581 90.4665H320.22C319.965 90.4665 319.804 90.3174 319.745 90.0232L319.741 90.031ZM314.48 71.7009C313.711 73.4546 313.02 75.2398 312.408 77.0524C311.796 78.865 311.247 80.7286 310.752 82.6393H318.172C317.697 80.7679 317.151 78.9082 316.532 77.0681C315.912 75.2241 315.225 73.435 314.476 71.7009H314.48Z" fill="white"/>
<path d="M355.493 90.4738H354.221C353.927 90.4738 353.778 90.3248 353.778 90.0305V71.5238H346.12C346.1 72.1162 346.08 72.8382 346.061 73.6974C346.041 74.5527 346.01 75.4551 345.97 76.4006C345.931 77.3461 345.88 78.2878 345.821 79.2255C345.763 80.1631 345.704 81.0145 345.645 81.7835C345.39 84.8398 344.974 87.0801 344.405 88.5082C343.832 89.9363 342.938 90.6504 341.714 90.6504C341.36 90.6504 341.062 90.6033 340.827 90.5013C340.67 90.4425 340.564 90.3679 340.517 90.2777C340.466 90.1874 340.442 90.0266 340.442 89.7912V89.1713H341.121C341.513 89.1713 341.871 89.0457 342.184 88.7868C342.498 88.5318 342.777 88.0884 343.012 87.4567C343.248 86.8251 343.444 85.9619 343.605 84.8712C343.762 83.7766 343.899 82.3916 344.021 80.7163C344.138 78.9234 344.217 77.15 344.256 75.3962C344.295 73.6425 344.334 71.8377 344.374 69.9858H355.045C355.34 69.9858 355.489 70.1349 355.489 70.4292V90.4738H355.493Z" fill="white"/>
<path d="M378.72 69.9858C379.015 69.9858 379.164 70.1349 379.164 70.4292V78.2328H383.778C384.782 78.2328 385.688 78.327 386.496 78.5153C387.305 78.7036 387.995 79.0293 388.568 79.4922C389.141 79.9552 389.576 80.5712 389.882 81.3402C390.188 82.1092 390.341 83.0861 390.341 84.267C390.341 85.448 390.188 86.4994 389.882 87.2959C389.576 88.0923 389.145 88.7279 388.58 89.2027C388.019 89.6774 387.344 90.007 386.555 90.1914C385.767 90.3797 384.9 90.4738 383.954 90.4738H377.924C377.63 90.4738 377.48 90.3248 377.48 90.0305V69.9858H378.72ZM379.164 88.9359H383.895C384.684 88.9359 385.374 88.8731 385.963 88.7436C386.555 88.6141 387.042 88.3787 387.426 88.0335C387.811 87.6882 388.101 87.2174 388.297 86.6132C388.493 86.0129 388.592 85.24 388.592 84.2945C388.592 83.3489 388.497 82.6427 388.309 82.0621C388.121 81.4814 387.826 81.0184 387.422 80.6732C387.018 80.3279 386.516 80.0886 385.916 79.9474C385.316 79.81 384.601 79.7394 383.774 79.7394H379.16V88.9359H379.164Z" fill="white"/>
<path d="M424.815 90.4738H423.543C423.249 90.4738 423.1 90.3248 423.1 90.0305V80.7477H413.315V90.4738H412.044C411.75 90.4738 411.601 90.3248 411.601 90.0305V69.9858H412.872C413.166 69.9858 413.315 70.1349 413.315 70.4292V79.2098H423.1V69.9858H424.371C424.666 69.9858 424.815 70.1349 424.815 70.4292V90.4738Z" fill="white"/>
<path d="M460.735 80.2413C460.735 82.3521 460.563 84.0862 460.217 85.4437C459.872 86.8052 459.386 87.8763 458.754 88.6649C458.122 89.4535 457.365 89.9988 456.478 90.3048C455.592 90.6109 454.607 90.7639 453.524 90.7639C452.441 90.7639 451.484 90.6109 450.597 90.3048C449.711 89.9988 448.949 89.4535 448.322 88.6649C447.69 87.8763 447.203 86.8012 446.858 85.4437C446.513 84.0823 446.34 82.3482 446.34 80.2413C446.34 78.1344 446.513 76.4003 446.858 75.0389C447.203 73.6775 447.69 72.6064 448.322 71.8178C448.953 71.0292 449.711 70.4838 450.597 70.1778C451.484 69.8718 452.461 69.7188 453.524 69.7188C454.587 69.7188 455.592 69.8718 456.478 70.1778C457.365 70.4838 458.122 71.0292 458.754 71.8178C459.386 72.6064 459.872 73.6814 460.217 75.0389C460.563 76.4003 460.735 78.1344 460.735 80.2413ZM448.141 80.2413C448.141 81.8381 448.224 83.1996 448.392 84.3217C448.561 85.4437 448.851 86.3657 449.263 87.0877C449.679 87.8056 450.228 88.3353 450.919 88.6688C451.609 89.0023 452.477 89.171 453.52 89.171C454.564 89.171 455.403 89.0023 456.09 88.6688C456.78 88.3314 457.338 87.8056 457.761 87.0877C458.185 86.3697 458.487 85.4477 458.664 84.3217C458.84 83.1996 458.931 81.8381 458.931 80.2413C458.931 78.6445 458.84 77.2791 458.664 76.1453C458.487 75.0114 458.189 74.0894 457.777 73.3832C457.361 72.6731 456.804 72.1513 456.106 71.8178C455.407 71.4804 454.544 71.3156 453.52 71.3156C452.496 71.3156 451.609 71.4843 450.919 71.8178C450.228 72.1513 449.679 72.6731 449.263 73.3832C448.851 74.0933 448.557 75.0153 448.392 76.1453C448.224 77.2791 448.141 78.6445 448.141 80.2413Z" fill="white"/>
<path d="M511.33 84.0002C511.762 83.0351 512.174 81.964 512.566 80.7909C512.959 79.6178 513.316 78.4172 513.641 77.1853C513.963 75.9533 514.249 74.7214 514.497 73.4894C514.74 72.2575 514.944 71.0883 515.101 69.9858H516.431C516.588 69.9858 516.698 70.0212 516.756 70.0879C516.815 70.1585 516.847 70.2409 516.847 70.3389C516.847 70.4763 516.815 70.7313 516.756 71.1079C516.6 72.0927 516.388 73.1834 516.125 74.3761C515.862 75.5688 515.544 76.7812 515.183 78.0131C514.818 79.2451 514.422 80.4574 513.99 81.6501C513.559 82.8428 513.096 83.9414 512.606 84.9458C512.131 85.9109 511.676 86.7584 511.244 87.4881C510.809 88.2179 510.357 88.8221 509.883 89.3047C509.408 89.7873 508.89 90.1521 508.325 90.3993C507.764 90.6465 507.117 90.7681 506.387 90.7681C505.873 90.7681 505.488 90.7093 505.23 90.5915C505.033 90.4738 504.935 90.2973 504.935 90.058V89.2027C505.131 89.2223 505.32 89.234 505.496 89.234H505.998C506.532 89.234 506.991 89.1752 507.376 89.0575C507.76 88.9398 508.113 88.7358 508.427 88.4494C508.741 88.163 509.051 87.7824 509.345 87.3116C509.643 86.8369 509.977 86.2444 510.353 85.5382C509.663 84.4553 509.004 83.2587 508.384 81.9444C507.76 80.634 507.199 79.2882 506.693 77.9072C506.187 76.5301 505.759 75.1569 505.402 73.7994C505.045 72.438 504.798 71.1707 504.661 69.9858H506.022C506.218 69.9858 506.348 70.029 506.407 70.1192C506.465 70.2095 506.505 70.3115 506.524 70.4292C506.681 71.5513 506.92 72.7244 507.234 73.9485C507.552 75.1726 507.917 76.3771 508.333 77.5698C508.749 78.7625 509.212 79.912 509.726 81.0145C510.24 82.117 510.773 83.1135 511.327 84.0002H511.33Z" fill="white"/>
<path d="M537.953 69.9858C538.248 69.9858 538.397 70.1349 538.397 70.4292V76.6988C538.397 77.5462 538.475 78.2564 538.632 78.8292C538.789 79.402 539.048 79.8571 539.401 80.2024C539.758 80.5476 540.221 80.7948 540.79 80.94C541.363 81.0891 542.061 81.1636 542.889 81.1636C543.442 81.1636 543.984 81.1401 544.517 81.0891C545.051 81.0381 545.573 80.9439 546.083 80.8066V69.9858H547.354C547.648 69.9858 547.797 70.1349 547.797 70.4292V90.4738H546.526C546.232 90.4738 546.083 90.3248 546.083 90.0305V82.2857C545.686 82.4426 545.176 82.5682 544.545 82.6545C543.913 82.7447 543.285 82.7879 542.654 82.7879C541.649 82.7879 540.77 82.6898 540.021 82.4936C539.272 82.2975 538.652 81.9561 538.157 81.4736C537.663 80.991 537.294 80.3515 537.047 79.5511C536.8 78.7546 536.678 77.762 536.678 76.5811V69.9898H537.949L537.953 69.9858Z" fill="white"/>
<path d="M580.676 90.031C580.519 89.0855 580.339 88.1242 580.142 87.1473C579.946 86.1704 579.727 85.1738 579.491 84.1459H571.33C571.075 85.2091 570.844 86.2645 570.636 87.3082C570.428 88.3518 570.236 89.4072 570.059 90.4704H568.878C568.541 90.4704 568.396 90.3213 568.435 90.0271C568.827 87.6417 569.302 85.3896 569.855 83.271C570.408 81.1523 570.969 79.2299 571.542 77.5075C572.115 75.7851 572.664 74.2746 573.198 72.9838C573.732 71.693 574.183 70.6926 574.559 69.9824H575.98C576.117 69.9824 576.231 70.002 576.321 70.0413C576.411 70.0805 576.502 70.1982 576.604 70.3944C576.976 71.2026 577.435 72.2776 577.977 73.6155C578.518 74.9573 579.063 76.4992 579.617 78.2412C580.17 79.9871 580.7 81.8899 581.214 83.9615C581.727 86.0331 582.159 88.1988 582.516 90.4665H581.155C580.9 90.4665 580.739 90.3174 580.68 90.0232L580.676 90.031ZM575.415 71.7009C574.646 73.4546 573.955 75.2398 573.343 77.0524C572.731 78.865 572.182 80.7286 571.687 82.6393H579.107C578.632 80.7679 578.087 78.9082 577.467 77.0681C576.847 75.2241 576.16 73.435 575.411 71.7009H575.415Z" fill="white"/>
<path d="M605.658 90.4738C605.364 90.4738 605.214 90.3248 605.214 90.0305V71.5238H599.832C599.537 71.5238 599.388 71.3747 599.388 71.0805V69.9858H612.339C612.634 69.9858 612.783 70.1349 612.783 70.4292V71.5238H606.929V90.4738H605.658Z" fill="white"/>
<defs>
<linearGradient id="paint0_linear_2056_59" x1="9.39573" y1="61.8156" x2="81.4255" y2="27.5839" gradientUnits="userSpaceOnUse">
<stop stop-color="#E9AC00"/>
<stop offset="0.25" stop-color="#E4BE00"/>
<stop offset="0.38" stop-color="#FFEB00"/>
<stop offset="0.41" stop-color="#FFEB00"/>
<stop offset="0.55" stop-color="#FFF37A"/>
<stop offset="0.59" stop-color="#FFED50"/>
<stop offset="0.66" stop-color="#FFEB00"/>
<stop offset="1" stop-color="#FFEF6B"/>
</linearGradient>
<linearGradient id="paint1_linear_2056_59" x1="55.5163" y1="45.0162" x2="39.5834" y2="47.2761" gradientUnits="userSpaceOnUse">
<stop stop-color="#7D5600"/>
<stop offset="1" stop-color="#FFE84F"/>
</linearGradient>
</defs>
</svg>
